<?xml version="1.0" encoding="UTF-8"?>
<svg id="Layer_2" data-name="Layer 2" xmlns="http://www.w3.org/2000/svg" viewBox="0 0 538.81 132.85">
  <defs>
    <style>
      .cls-1 {
        letter-spacing: -.02em;
      }

      .cls-2 {
        letter-spacing: 0em;
      }

      .cls-3 {
        letter-spacing: 0em;
      }

      .cls-4 {
        letter-spacing: 0em;
      }

      .cls-5 {
        letter-spacing: 0em;
      }

      .cls-6 {
        fill: #8dc73f;
      }

      .cls-7 {
        fill: #6bc73f;
      }

      .cls-8 {
        font-family: ProductSans-Light, 'Product Sans Light';
        font-size: 20.24px;
        font-weight: 300;
      }

      .cls-9 {
        letter-spacing: -.03em;
      }

      .cls-10 {
        fill: #64902a;
      }

      .cls-11 {
        letter-spacing: -.03em;
      }

      .cls-12 {
        fill: #76c73f;
      }

      .cls-13 {
        letter-spacing: 0em;
      }

      .cls-14 {
        fill: #82c73f;
      }

      .cls-15 {
        letter-spacing: 0em;
      }
    </style>
  </defs>
  <g id="Layer_1-2" data-name="Layer 1">
    <g>
      <g>
        <path class="cls-10" d="M503.15,102.34c0,.46-.38.84-.84.84h-18.75c-.46,0-.79-.38-.79-.84s.33-.84.79-.84h.5l.08-.42c1.63-8.35,1.63-16.91,0-25.3l-.08-.38h-.5c-.46,0-.79-.38-.79-.84s.33-.84.79-.84h18.75c.46,0,.84.38.84.84s-.38.84-.84.84h-.5l-.08.38c-.5,2.42-.79,4.84-1,7.27-.21.38-.38.75-.54,1.09-.13.21-.21.42-.29.63-.13.21-.21.42-.29.58-.08.21-.17.42-.25.63-.08.17-.21.33-.25.54-.17.38-.29.71-.42,1.04-.13.33-.25.63-.33.92-.13.29-.21.54-.29.79-.04.13-.08.25-.13.33-.04.13-.04.21-.08.29-.04.21-.13.38-.13.5-.08.13-.08.21-.08.29,0-.08.08-.17.13-.25.13-.25.29-.63.54-1.04.04-.13.08-.25.17-.38.04-.13.13-.25.17-.38.17-.25.29-.54.46-.88.17-.29.33-.63.54-.96.17-.33.38-.71.58-1.09.13-.17.25-.38.33-.58,0-.04.04-.04.04-.08-.29,5.39.08,10.73,1.13,16.03l.08.42h.5c.46,0,.84.38.84.84Z"/>
        <path class="cls-10" d="M538.81,56.12c-5.51.04-10.61,3.3-14.41,7.35-3.8,4.01-6.72,8.77-10.36,12.94-3.55,4.09-8.1,7.72-13.4,8.56.13-.13.17-.29.29-.42.21-.38.46-.79.71-1.21.17-.21.29-.42.42-.63.13-.21.29-.42.42-.63.13-.21.29-.46.42-.67.08-.08.17-.21.25-.33.08-.08.13-.21.21-.33.17-.21.33-.42.5-.63.04-.08.08-.13.08-.21.04-.04.13-.08.13-.13.08-.13.17-.25.25-.33.08-.13.17-.25.25-.33.08-.13.17-.25.25-.33.17-.21.33-.42.5-.67.67-.88,1.38-1.75,2.13-2.63.38-.42.75-.84,1.13-1.25.21-.21.38-.42.58-.63s.38-.42.58-.63c.21-.17.38-.38.58-.58l.58-.58c.08-.13.21-.21.29-.29l.13-.13c.04-.08.08-.13.17-.17.21-.17.38-.38.58-.54.79-.75,1.54-1.42,2.3-2.05.38-.33.75-.63,1.09-.92.17-.17.33-.29.54-.46.17-.13.33-.25.5-.42.33-.25.63-.5.96-.75.29-.21.63-.42.88-.63.29-.21.58-.42.79-.58.13-.08.25-.17.38-.25.13-.08.21-.17.33-.21.38-.29.71-.54.96-.67.13-.08.21-.13.25-.21-.04,0-.13.04-.21.08-.13.04-.25.13-.46.21-.08.04-.17.08-.25.13s-.21.13-.33.17c-.21.08-.46.25-.75.38-.25.17-.54.33-.88.5-.29.17-.63.33-.96.54-.17.13-.33.25-.5.33-.17.13-.38.25-.54.38-.21.13-.38.25-.58.33-.17.13-.38.25-.54.42-.38.25-.79.54-1.21.84-.21.13-.38.29-.58.46-.21.17-.42.33-.63.46-.08.13-.21.17-.29.25-.13.08-.21.17-.33.29-.08.08-.21.17-.29.25-.13.08-.21.17-.33.25-.21.17-.42.38-.63.54l-.13.13c-.08.08-.13.08-.17.17-.13.08-.21.17-.33.25-.42.38-.79.79-1.21,1.21-.42.42-.84.79-1.21,1.25-.42.42-.79.84-1.17,1.25-.75.92-1.5,1.8-2.17,2.71-.33.5-.67.92-1,1.42-.08.13-.13.21-.25.33,0,.04-.08.13-.08.17-.08.04-.13.13-.13.17-.17.25-.33.5-.46.71-.54.88-1.09,1.75-1.5,2.59,2.3-7.56,7.06-14.36,13.36-19.08,6.97-5.26,15.83-7.97,24.51-7.52Z"/>
        <path class="cls-10" d="M502.31,70.57h-.5l-.08-.42c-1.63-8.35-1.63-16.95,0-25.3l.08-.42h.5c.46,0,.84-.33.84-.79s-.38-.84-.84-.84h-18.75c-.46,0-.79.38-.79.84s.33.79.79.79h.5l.08.42c.58,2.88.92,5.89,1.09,8.81-1.34-3.84-3.72-7.35-6.89-9.94-4.09-3.47-9.44-5.47-14.78-5.47,3.38.21,6.39,2.38,8.6,5.01,2.17,2.59,3.84,5.64,5.93,8.31,1.92,2.51,4.3,4.68,7.27,5.55.04,4.34-.38,8.73-1.21,13.03l-.08.42h-.5c-.46,0-.79.33-.79.79s.33.84.79.84h18.75c.46,0,.84-.38.84-.84s-.38-.79-.84-.79ZM487.62,60.75c-.08-.17-.17-.38-.29-.67-.04-.04-.08-.13-.08-.21-.04-.08-.08-.17-.13-.25-.08-.17-.17-.33-.25-.54-.08-.21-.17-.42-.29-.63-.08-.21-.21-.46-.33-.67-.04-.13-.13-.25-.17-.38,0-.04-.04-.04-.04-.08-.04-.08-.08-.21-.17-.29-.13-.25-.25-.5-.42-.75-.04-.08-.08-.17-.13-.25-.04-.08-.04-.13-.08-.17-.08-.13-.17-.29-.25-.42-.08-.13-.17-.25-.25-.42-.04-.04-.08-.13-.13-.21-.04-.04-.08-.13-.13-.21-.08-.13-.17-.25-.25-.42-.04-.04-.04-.08-.08-.13,0,0-.04-.04-.04-.08-.08-.08-.13-.13-.17-.21s-.08-.17-.13-.21c-.04-.08-.08-.17-.13-.21-.13-.13-.21-.29-.29-.42-.42-.58-.79-1.17-1.25-1.71-.21-.25-.42-.54-.63-.79-.13-.17-.25-.29-.33-.42-.13-.13-.21-.25-.33-.42-.13-.13-.25-.25-.33-.38-.08-.04-.13-.13-.17-.17-.08-.08-.13-.13-.21-.21-.04-.08-.08-.13-.17-.21l-.08-.08s-.04-.04-.04-.08l-.38-.38c-.46-.46-.88-.92-1.34-1.34-.21-.21-.42-.42-.63-.58-.13-.13-.21-.21-.33-.29-.08-.08-.17-.17-.29-.29-.21-.17-.38-.33-.54-.46-.21-.17-.38-.33-.54-.46-.17-.13-.33-.25-.46-.38-.08-.04-.13-.08-.21-.17-.08-.04-.13-.08-.21-.13-.21-.21-.42-.33-.54-.46-.04-.04-.13-.08-.17-.13.04,0,.08,0,.13.04.08.04.17.08.25.17.08,0,.13.04.17.08.08.04.13.08.21.08.13.08.29.17.42.29.17.08.33.21.54.33.17.08.38.25.58.38.08.08.21.13.29.21.13.08.21.17.33.25.08.08.21.17.33.25.08.08.21.13.33.25.21.17.46.38.67.54.13.08.25.21.38.29.13.13.25.25.38.33.04.04.13.13.17.17.08.04.13.13.17.17.08.04.13.13.21.17.04.04.13.13.17.17.13.13.25.25.38.38.04,0,.04.04.08.08s.08.04.08.08c.08.04.13.13.21.17.25.25.46.54.71.79.21.25.46.54.71.79.21.29.42.54.67.84.42.58.84,1.17,1.21,1.75.21.29.42.58.58.88.04.08.08.17.13.25.04,0,.04.04.08.08.04.04.04.08.04.13.13.17.21.29.29.46.04.13.13.21.17.33.21.38.38.79.58,1.17t.04.08s.04.08.08.13c.13.25.25.54.38.79.04.13.08.29.13.42.04.13.13.25.17.38.04.13.08.25.13.38.04.13.13.21.13.33.08.25.17.46.25.67.04.21.13.42.17.58.04.17.08.33.13.5.04.08.08.17.08.21,0,.08.04.13.04.21.04.08.04.21.08.29.04.13.04.25.04.25,0,0-.04-.08-.08-.25Z"/>
        <path class="cls-10" d="M491.05,40.44c4.46,2.53,10.37,1.16,14.28-2.16,3.91-3.32,6.13-8.21,7.63-13.11-4.75.81-9.6,1.67-13.83,4-4.23,2.33-7.78,6.47-8.08,11.27Z"/>
      </g>
      <g>
        <path class="cls-6" d="M115.1,99.89c-4.6-2.58-8.25-6.15-10.94-10.73-2.69-4.57-4.04-9.74-4.04-15.51s1.35-10.94,4.04-15.51c2.69-4.57,6.33-8.14,10.94-10.69,4.6-2.55,9.65-3.83,15.14-3.83s10.6,1.27,15.18,3.83c4.57,2.55,8.19,6.11,10.85,10.69,2.66,4.57,3.99,9.75,3.99,15.51s-1.33,10.94-3.99,15.51c-2.66,4.58-6.29,8.15-10.89,10.73-4.6,2.58-9.65,3.87-15.14,3.87s-10.54-1.29-15.14-3.87ZM140.1,84.55c2.41-2.72,3.62-6.35,3.62-10.9s-1.21-8.33-3.62-11.02c-2.41-2.69-5.7-4.04-9.86-4.04s-7.52,1.35-9.9,4.04c-2.39,2.69-3.58,6.37-3.58,11.02s1.19,8.25,3.58,10.94c2.38,2.69,5.68,4.04,9.9,4.04s7.44-1.36,9.86-4.08Z"/>
        <path class="cls-6" d="M230.39,44.53v58.64h-16.3v-32.35l-11.06,32.35h-13.64l-11.15-32.61v32.61h-16.3v-58.64h19.71l14.72,38.1,14.39-38.1h19.63Z"/>
        <path class="cls-6" d="M277.26,73.78c-1.64,2.91-4.1,5.24-7.4,6.98s-7.33,2.62-12.1,2.62h-8.07v19.8h-16.3v-58.64h24.37c4.71,0,8.72.84,12.02,2.5,3.3,1.66,5.78,3.97,7.44,6.9s2.5,6.32,2.5,10.14c0,3.55-.82,6.78-2.46,9.69ZM263.08,64.08c0-4.27-2.3-6.4-6.9-6.4h-6.49v12.73h6.49c4.6,0,6.9-2.11,6.9-6.32Z"/>
        <path class="cls-6" d="M295.16,99.89c-4.6-2.58-8.25-6.15-10.94-10.73-2.69-4.57-4.04-9.74-4.04-15.51s1.35-10.94,4.04-15.51c2.69-4.57,6.33-8.14,10.94-10.69,4.6-2.55,9.65-3.83,15.14-3.83s10.6,1.27,15.18,3.83c4.57,2.55,8.19,6.11,10.85,10.69s3.99,9.75,3.99,15.51-1.33,10.94-3.99,15.51c-2.66,4.58-6.29,8.15-10.89,10.73-4.6,2.58-9.65,3.87-15.14,3.87s-10.54-1.29-15.14-3.87ZM320.15,84.55c2.41-2.72,3.62-6.35,3.62-10.9s-1.21-8.33-3.62-11.02c-2.41-2.69-5.7-4.04-9.86-4.04s-7.52,1.35-9.9,4.04c-2.39,2.69-3.58,6.37-3.58,11.02s1.19,8.25,3.58,10.94c2.38,2.69,5.68,4.04,9.9,4.04s7.44-1.36,9.86-4.08Z"/>
        <path class="cls-6" d="M347.39,98.9c-4.38-3.25-6.74-7.89-7.07-13.93h17.38c.17,2.05.78,3.55,1.83,4.49,1.05.95,2.41,1.41,4.07,1.41,1.5,0,2.73-.37,3.7-1.12.97-.75,1.45-1.79,1.45-3.12,0-1.72-.8-3.05-2.41-3.99-1.61-.94-4.21-2-7.82-3.16-3.83-1.27-6.92-2.51-9.27-3.7-2.36-1.19-4.41-2.94-6.16-5.24s-2.62-5.31-2.62-9.02.94-7,2.83-9.69c1.89-2.69,4.49-4.73,7.82-6.11,3.33-1.38,7.1-2.08,11.31-2.08,6.82,0,12.27,1.59,16.34,4.78,4.07,3.19,6.25,7.66,6.53,13.43h-17.72c-.06-1.78-.6-3.11-1.62-3.99s-2.34-1.33-3.95-1.33c-1.22,0-2.22.36-2.99,1.08-.78.72-1.17,1.75-1.17,3.08,0,1.11.43,2.07,1.29,2.87.86.8,1.93,1.5,3.2,2.08,1.28.58,3.16,1.31,5.66,2.2,3.71,1.28,6.78,2.54,9.19,3.78,2.41,1.25,4.49,3,6.24,5.24,1.75,2.25,2.62,5.09,2.62,8.53s-.87,6.63-2.62,9.4c-1.75,2.77-4.27,4.96-7.57,6.57-3.3,1.61-7.2,2.41-11.69,2.41-6.82,0-12.42-1.62-16.8-4.86Z"/>
        <path class="cls-6" d="M433.48,44.53v12.98h-15.64v45.66h-16.3v-45.66h-15.47v-12.98h47.41Z"/>
        <path class="cls-6" d="M461.41,93.61h-20.79l-3.16,9.57h-17.14l21.38-58.64h18.8l21.29,58.64h-17.22l-3.16-9.57ZM457.34,81.14l-6.32-18.96-6.24,18.96h12.56Z"/>
      </g>
      <path class="cls-10" d="M113.35,105.14c.63.6.69,1.62.11,2.28-12.51,14.37-28.66,21.55-48.46,21.55-9.2,0-17.76-1.66-25.69-5-7.93-3.33-14.8-7.9-20.6-13.71-5.81-5.81-10.38-12.61-13.71-20.43-3.33-7.81-5-16.26-5-25.35s1.66-17.53,5-25.35c3.33-7.81,7.9-14.62,13.71-20.43,5.8-5.8,12.67-10.37,20.6-13.71C47.24,1.67,55.81,0,65,0c10.12,0,18.88,1.72,26.3,5.17,6.14,2.86,11.83,6.78,17.07,11.77,1.81,1.72,1.73,4.65-.06,6.39l-2.72,2.64c-6.52,6.34-16.43,7.66-24.38,3.25h0c-4.48-2.47-9.83-3.7-16.04-3.7-5.4,0-10.43.92-15.09,2.76-4.66,1.84-8.71,4.49-12.16,7.93-3.45,3.45-6.15,7.56-8.11,12.33-1.96,4.77-2.93,10.09-2.93,15.95s.98,11.18,2.93,15.95c1.95,4.77,4.66,8.88,8.11,12.33,3.45,3.45,7.5,6.1,12.16,7.93,4.65,1.84,9.68,2.76,15.09,2.76,6.55,0,12.24-1.32,17.07-3.97h0c9.47-5.21,21.22-3.71,29.07,3.72l2.04,1.93Z"/>
      <polygon class="cls-6" points="471.38 111.06 127.59 111.06 121.61 107.07 471.38 107.07 471.38 111.06"/>
      <rect class="cls-14" x="473.87" y="107.07" width="8.9" height="3.99"/>
      <rect class="cls-12" x="485.17" y="107.07" width="8.9" height="3.99"/>
      <rect class="cls-7" x="496.19" y="107.07" width="8.9" height="3.99"/>
      <text class="cls-8" transform="translate(277.74 127.73)"><tspan x="0" y="0">A </tspan><tspan class="cls-11" x="17.97" y="0">F</tspan><tspan x="27.79" y="0">er</tspan><tspan class="cls-1" x="45.26" y="0">r</tspan><tspan x="51.63" y="0">ame</tspan><tspan class="cls-9" x="89.59" y="0">n</tspan><tspan class="cls-4" x="99.91" y="0">t</tspan><tspan class="cls-15" x="106.55" y="0">a </tspan><tspan class="cls-13" x="121.55" y="0">d</tspan><tspan class="cls-2" x="132.96" y="0">o</tspan><tspan class="cls-11" x="144.17" y="0"> </tspan><tspan class="cls-4" x="148.32" y="0">A</tspan><tspan x="161.34" y="0">gr</tspan><tspan class="cls-13" x="179.6" y="0">i</tspan><tspan x="183.44" y="0">cu</tspan><tspan class="cls-3" x="204.65" y="0">l</tspan><tspan class="cls-13" x="208.46" y="0">t</tspan><tspan class="cls-5" x="215.2" y="0">o</tspan><tspan x="226.21" y="0">r</tspan></text>
    </g>
  </g>
</svg>